<?xml version="1.0" encoding="UTF-8" standalone="no"?>
<!-- Created with Inkscape (http://www.inkscape.org/) -->

<svg
   xmlns:dc="http://purl.org/dc/elements/1.1/"
   xmlns:cc="http://creativecommons.org/ns#"
   xmlns:rdf="http://www.w3.org/1999/02/22-rdf-syntax-ns#"
   xmlns:svg="http://www.w3.org/2000/svg"
   xmlns="http://www.w3.org/2000/svg"
   xmlns:sodipodi="http://sodipodi.sourceforge.net/DTD/sodipodi-0.dtd"
   xmlns:inkscape="http://www.inkscape.org/namespaces/inkscape"
   width="720.70563"
   height="920.96771"
   viewBox="0 0 190.6867 243.67272"
   version="1.1"
   id="svg8"
   inkscape:version="0.92.4 (5da689c313, 2019-01-14)"
   sodipodi:docname="Ultrajaya.svg">
  <defs
     id="defs2" />
  <sodipodi:namedview
     id="base"
     pagecolor="#ffffff"
     bordercolor="#666666"
     borderopacity="1.0"
     inkscape:pageopacity="0.0"
     inkscape:pageshadow="2"
     inkscape:zoom="0.12374369"
     inkscape:cx="232.06058"
     inkscape:cy="214.65813"
     inkscape:document-units="mm"
     inkscape:current-layer="layer1"
     showgrid="false"
     fit-margin-top="0"
     fit-margin-left="0"
     fit-margin-right="0"
     fit-margin-bottom="0"
     units="px"
     inkscape:window-width="1366"
     inkscape:window-height="745"
     inkscape:window-x="-8"
     inkscape:window-y="-8"
     inkscape:window-maximized="1" />
  <metadata
     id="metadata5">
    <rdf:RDF>
      <cc:Work
         rdf:about="">
        <dc:format>image/svg+xml</dc:format>
        <dc:type
           rdf:resource="http://purl.org/dc/dcmitype/StillImage" />
        <dc:title></dc:title>
      </cc:Work>
    </rdf:RDF>
  </metadata>
  <g
     inkscape:label="Layer 1"
     inkscape:groupmode="layer"
     id="layer1"
     transform="translate(-206.32401,38.044419)">
    <path
       style="fill:#00237d;fill-opacity:1;stroke-width:0.0422434"
       d="m 207.05271,205.62504 -0.7287,-0.0116 V 83.784535 -38.044419 h 95.34334 95.34335 V 83.785532 205.61548 l -0.64422,4.3e-4 c -17.08445,0.009 -188.81462,0.0172 -189.31377,0.009 z"
       id="path860"
       inkscape:connector-curvature="0" />
    <path
       style="fill:#f9f9f9;stroke-width:0.0422434"
       d="M 392.99758,83.785532 V -34.031293 H 301.66735 210.33713 V 83.785532 201.60236 h 91.33022 91.33023 z"
       id="path858"
       inkscape:connector-curvature="0" />
    <path
       id="path832"
       style="fill:#00237d;fill-opacity:1;stroke-width:0.0422434"
       d="m 349.23342,178.05205 v -4.583 l -1.46308,-3.34819 c -0.8047,-1.8415 -2.07049,-4.73588 -2.81286,-6.43195 -0.74238,-1.69607 -1.35967,-3.10753 -1.37175,-3.13657 -0.0175,-0.042 0.65266,-0.0528 3.26893,-0.0528 h 3.29089 l 0.0881,0.26402 c 0.19603,0.58737 2.85549,7.91246 2.88389,7.94326 0.0246,0.0267 1.3069,-3.28904 2.99807,-7.75241 l 0.2358,-0.62235 2.23287,-0.001 c 1.76958,-5e-4 2.22847,0.0102 2.21178,0.052 -0.0116,0.0291 -0.23419,0.54705 -0.49467,1.15112 -0.26048,0.60409 -0.58357,1.35497 -0.71799,1.66863 -0.1344,0.31365 -0.72377,1.68233 -1.3097,3.04152 -0.58594,1.35918 -1.29018,2.994 -1.56498,3.63293 -0.27479,0.63893 -0.72897,1.69302 -1.00931,2.34243 l -0.50969,1.18072 v 4.61718 4.61717 h -2.97816 -2.97816 v -4.58301 z m -63.87976,-8.41738 c 0.48254,-0.29473 0.87317,-0.86133 1.0703,-1.55244 0.141,-0.49432 0.14131,-1.3851 5.1e-4,-1.83759 -0.14273,-0.45909 -0.36142,-0.8238 -0.70328,-1.17281 l -0.30051,-0.30681 -1.49141,0.0111 -1.49141,0.0111 0.004,2.45012 c 0.002,1.34756 0.004,2.45487 0.004,2.46067 4.2e-4,0.006 0.62747,0.0106 1.39363,0.0106 1.2524,0 1.40522,-0.007 1.51404,-0.0739 z m -8.56767,1.9316 v -11.06881 l 5.65005,0.0127 5.65006,0.0127 0.42244,0.1174 c 0.5684,0.15797 1.2394,0.44638 1.71746,0.73821 0.45588,0.27828 1.22467,1.00838 1.50901,1.43307 0.77116,1.15182 1.10849,2.63706 0.98454,4.33484 -0.11303,1.54802 -0.44019,2.62864 -1.09376,3.61276 -0.53158,0.80041 -1.46915,1.5481 -2.2407,1.78692 -0.0987,0.0306 -0.17954,0.0713 -0.17954,0.0905 0,0.0192 0.73393,1.73972 1.63094,3.82331 2.44823,5.68674 2.63565,6.12408 2.63565,6.15062 0,0.0135 -1.43126,0.0244 -3.18058,0.0244 h -3.18057 l -1.53527,-4.00256 c -0.84439,-2.20141 -1.56023,-4.06434 -1.59077,-4.13985 l -0.0555,-0.13729 h -0.65694 -0.65693 v 4.13985 4.13985 h -2.91479 -2.9148 z m -32.44292,-0.0834 v -11.15226 h 3.08366 3.08368 l 0.0107,8.98728 0.0107,8.98729 3.2633,0.0108 3.26331,0.0108 v 2.15415 2.15416 h -6.35764 -6.35763 z m 126.67196,2.08048 c -0.0119,-0.0406 -0.34778,-1.46162 -0.74632,-3.15769 -0.39855,-1.69607 -0.73172,-3.09116 -0.74037,-3.10019 -0.0199,-0.0207 0.0865,-0.30957 -1.18054,3.2058 -0.59873,1.66122 -1.0974,3.04417 -1.10817,3.07321 -0.0155,0.0418 0.37983,0.0528 1.88875,0.0528 1.79755,0 1.90707,-0.004 1.88665,-0.0739 z m 2.53578,8.38532 c -0.15063,-0.47049 -0.52854,-1.65383 -0.83977,-2.62966 l -0.56589,-1.77422 -2.82955,-0.0108 -2.82954,-0.0109 -0.83916,2.45041 -0.83917,2.45041 h -2.31663 c -1.27415,0 -2.31664,-0.0122 -2.31664,-0.0272 0,-0.015 0.21698,-0.65653 0.48219,-1.42572 0.59873,-1.73652 4.23622,-12.25221 4.62639,-13.37452 0.1575,-0.45306 0.78749,-2.27321 1.39995,-4.0448 l 1.11358,-3.22106 h 2.54382 2.54382 l 0.48535,1.48908 c 0.26695,0.819 1.28403,3.94131 2.26017,6.93848 0.97614,2.99717 2.394,7.35035 3.15079,9.67373 0.75679,2.32339 1.38657,4.25761 1.3995,4.29827 0.0222,0.07 -0.14758,0.0739 -3.1659,0.0739 h -3.18942 z m -38.04015,-8.33182 c 0.0113,-0.0113 -0.31313,-1.43638 -0.72082,-3.16698 -0.40768,-1.7306 -0.75431,-3.13287 -0.77028,-3.11614 -0.0267,0.0281 -2.27491,6.23727 -2.27491,6.28316 0,0.0267 3.73933,0.0266 3.76601,-4e-5 z m 2.79568,9.11332 c -0.0112,-0.0406 -0.38675,-1.224 -0.83454,-2.62965 l -0.81416,-2.55573 -2.83107,-0.0108 -2.83106,-0.0109 -0.70595,2.05966 c -0.38828,1.13281 -0.76624,2.23547 -0.83993,2.45036 l -0.13398,0.3907 h -2.31282 c -1.46803,3e-5 -2.31283,-0.0149 -2.31283,-0.0409 0,-0.0225 0.24568,-0.74968 0.54597,-1.61581 0.68851,-1.98601 3.71443,-10.73267 4.99121,-14.42752 0.53193,-1.53934 1.13703,-3.28822 1.34467,-3.88639 0.20765,-0.59817 0.45728,-1.32044 0.55475,-1.60506 l 0.1772,-0.51748 h 2.55073 c 1.40291,0 2.55073,0.01 2.55073,0.0212 0,0.0116 0.29303,0.91935 0.65116,2.01713 0.35814,1.09777 0.90802,2.78484 1.22197,3.74905 3.46578,10.6441 5.38869,16.54195 5.41913,16.62128 0.0222,0.058 -0.31511,0.0649 -3.17295,0.0649 -3.00965,0 -3.19906,-0.004 -3.21823,-0.0739 z m -33.17503,-9.10908 c 0,-0.0162 -1.40225,-5.98104 -1.45975,-6.20945 -0.0218,-0.0864 -0.04,-0.10469 -0.063,-0.0634 -0.0275,0.0493 -0.51498,1.39409 -1.97963,5.46146 -0.14148,0.39289 -0.25723,0.73982 -0.25723,0.77096 0,0.0464 0.33689,0.0566 1.87983,0.0566 1.03391,0 1.87983,-0.007 1.87983,-0.0162 z m 1.98575,6.61672 c -0.44913,-1.41146 -0.83328,-2.59969 -0.85366,-2.64051 -0.0349,-0.0699 -0.20289,-0.0736 -2.85515,-0.0634 l -2.8181,0.0109 -0.60101,1.7531 c -0.33055,0.96422 -0.70817,2.06201 -0.83917,2.43956 l -0.23816,0.68645 h -2.31852 c -1.27519,0 -2.31853,-0.007 -2.31853,-0.0153 0,-0.008 0.6238,-1.81909 1.38622,-4.02369 0.76242,-2.20459 2.47804,-7.16844 3.81247,-11.03078 l 2.42624,-7.02243 2.55062,0.01 2.55063,0.01 1.65784,5.09033 c 1.43719,4.41284 2.63405,8.08699 5.07299,15.5731 0.3115,0.95612 0.56636,1.74977 0.56636,1.76367 0,0.0138 -1.43201,0.0252 -3.18223,0.0252 h -3.18223 z m -44.19737,-6.44212 -0.0107,-9.0084 -2.81974,-0.0109 -2.81975,-0.0109 v -2.21748 -2.21748 h 8.63878 8.63877 v 2.21747 2.21747 l -2.73526,0.0109 -2.73526,0.0109 -0.0107,9.00841 -0.0107,9.00841 h -3.06245 -3.06245 z m -31.46086,9.36468 c -0.82067,-0.0908 -1.0607,-0.1254 -1.49964,-0.21624 -2.58126,-0.53411 -4.6197,-2.10486 -5.74611,-4.42774 -0.14647,-0.30204 -0.32497,-0.72828 -0.39668,-0.94721 l -0.13036,-0.39805 v -8.33577 -8.33577 h 3.1049 3.10488 v 7.97723 c 0,7.74518 0.003,7.98654 0.0816,8.29634 0.30614,1.19702 1.22026,1.82567 2.54007,1.74685 0.99079,-0.0592 1.81652,-0.45446 2.58139,-1.23572 0.17817,-0.182 0.43004,-0.49064 0.55973,-0.68588 l 0.23577,-0.35497 v -7.95642 -7.95641 h 2.26127 2.26128 l -0.0141,8.64934 -0.0142,8.64933 -0.0921,0.42243 c -0.26827,1.23022 -0.77193,2.19807 -1.56142,3.00047 -1.07451,1.09208 -2.60257,1.76318 -4.61503,2.02685 -0.49421,0.0648 -2.30976,0.12024 -2.66133,0.0813 z m 83.26174,3.89123 v -1.78538 l 0.24289,-0.14998 c 0.1336,-0.0825 0.3679,-0.28006 0.52068,-0.43901 0.44531,-0.46332 0.69093,-0.93657 0.96116,-1.85201 l 0.11223,-0.38019 0.0114,-11.05721 0.0114,-11.05721 h 2.78798 2.78799 l -0.0112,11.14169 -0.0112,11.1417 -0.11684,0.40131 c -0.26732,0.91804 -0.59038,1.58232 -1.10942,2.28115 -0.29231,0.39356 -1.03578,1.14176 -1.43462,1.44374 -1.27036,0.96186 -2.88167,1.67832 -4.67845,2.08026 -0.0695,0.0155 -0.0739,-0.0904 -0.0739,-1.76886 z"
       inkscape:connector-curvature="0" />
    <path
       style="fill:#e70d2f;fill-opacity:1;stroke-width:0.0422434"
       d="m 316.4103,133.40557 c 0,-3.34259 0.0112,-4.24881 0.0528,-4.28057 0.0291,-0.0221 0.17636,-0.0838 0.32738,-0.13708 0.51083,-0.18009 2.15948,-0.84496 2.84542,-1.14752 7.33098,-3.23357 12.68856,-8.00356 15.65196,-13.93533 1.31451,-2.63124 2.04007,-5.03415 2.44265,-8.08961 0.068,-0.51587 0.0731,-4.19379 0.085,-60.672073 l 0.0126,-60.12291 h 19.89693 19.89692 l -0.0124,53.448454 c -0.0116,49.905413 -0.0172,53.526861 -0.0849,54.631268 -0.1404,2.293116 -0.29762,3.909309 -0.56094,5.766223 -1.01326,7.145628 -3.20149,13.390678 -6.5868,18.798318 -3.73916,5.97286 -8.97321,10.83006 -15.49442,14.37884 -4.90251,2.66791 -10.6897,4.59432 -16.18881,5.38887 -1.53844,0.22229 -1.03728,0.21341 -12.04388,0.21341 H 316.4103 Z"
       id="path830"
       inkscape:connector-curvature="0" />
    <path
       style="fill:#00237d;fill-opacity:1;stroke-width:0.0422434"
       d="m 272.45605,128.19972 c -0.18588,-0.008 -0.80368,-0.0341 -1.37292,-0.0586 -18.35327,-0.7897 -32.00461,-6.94393 -40.10565,-18.08023 -3.15076,-4.33128 -5.47215,-9.58397 -6.61123,-14.959453 -0.25869,-1.2208 -0.43048,-2.27979 -0.62618,-3.859986 -0.0691,-0.557786 -0.0739,-3.560378 -0.0849,-52.814849 l -0.0117,-52.22344 19.42158,0.01065 19.42159,0.01065 0.0221,52.149466 c 0.0209,49.38472 0.026,52.174808 0.096,52.627374 0.10982,0.710204 0.23213,1.331537 0.35082,1.782117 0.87603,3.32561 2.74875,5.780608 5.4561,7.152523 1.47224,0.746038 3.06876,1.176008 4.97382,1.339518 0.75534,0.0648 2.55227,0.0529 3.33722,-0.022 3.71172,-0.35473 6.47118,-1.766058 8.33949,-4.265255 1.1847,-1.584729 1.97791,-3.702014 2.21949,-5.924307 0.0585,-0.537847 0.0652,-6.055439 0.0652,-53.15275 v -52.552735 h 19.45346 19.45344 l -0.0128,52.624708 c -0.0119,49.124285 -0.0176,52.672477 -0.0845,53.342846 -0.32462,3.252158 -0.89802,5.96832 -1.88615,8.934483 -1.65343,4.9633 -4.30496,9.5283 -7.72903,13.30666 -5.63753,6.22086 -13.49409,10.54626 -23.2462,12.79809 -4.12878,0.95337 -8.28182,1.49956 -13.53095,1.77953 -0.79208,0.0423 -6.56809,0.0857 -7.30811,0.055 z"
       id="path826"
       inkscape:connector-curvature="0" />
  </g>
</svg>
